<mxfile host="app.diagrams.net" modified="2024-03-27T23:02:34.185Z" agent="Mozilla/5.0 (Windows NT 10.0; Win64; x64) AppleWebKit/537.36 (KHTML, like Gecko) Chrome/121.0.0.0 Safari/537.36 OPR/107.0.0.0" version="24.0.4" etag="ZcrGGvYHJOzKclBicUx6" type="github">
  <diagram name="Page-1" id="4H_-03zLilefWI-K9Y3P">
    <mxGraphModel>
      <root>
        <mxCell id="0" />
        <mxCell id="1" parent="0" />
      </root>
    </mxGraphModel>
  </diagram>
</mxfile>
